<svg version="1.2" xmlns="http://www.w3.org/2000/svg" viewBox="0 0 256 128" width="256" height="128"><style>tspan{white-space:pre}.a{fill:#e57225}.b{fill:#f9ae41}.c{fill:#f98821}.d{fill:#f23b3b}.e{fill:#c62222}.f{fill:#e6e8e8}.g{fill:#d4d6d6}.h{fill:#c6c6c6}.i{fill:#ddd}.j{fill:#f4cf9d}.k{fill:#efbf86}.l{fill:#6b6968}.m{fill:#51504e}.n{font-size: 111px;fill: #000000;font-weight: 400;font-style: italic;font-family: "AlibabaSans-Italic", "Alibaba Sans"}</style><path class="a" d="m82.3 112.9l29.3-29.3-48.8-48.8-29.2 29.3z"/><path class="b" d="m81.7 113.5l10-10-48.8-48.7-10 9.9z"/><path class="c" d="m91.7 103.5l10-9.9-48.8-48.8-10 10z"/><path class="d" d="m17.8 49.8l-7.8-7.8c-8.3-8.3-8.3-21.7 0-30 8.3-8.3 21.7-8.3 30 0l7.8 7.8z"/><path class="d" d="m17.8 49.8l-7.8-7.8c-8.3-8.3-8.3-21.7 0-30 8.3-8.3 21.7-8.3 30 0l7.8 7.8z"/><path class="e" d="m29.7 21.7c-6-6.1-14.5-8.3-22.3-6.5 7.4-11.1 23.2-12.6 32.6-3.2l7.8 7.8-9.9 10z"/><path class="f" d="m17.2 49.2l8 8.1 30.1-30-8.1-8.1z"/><path class="g" d="m55.3 27.3l-30.1 30 8.1 8.1 30-30.1z"/><path class="h" d="m45.5 37.4l-0.2-0.2 10-9.9 8 8.1-9.9 9.9z"/><path class="i" d="m45.3 37.2l10-9.9-8.1-8.1-10 9.9z"/><path class="j" d="m120.6 113.9c-0.1-0.1-8.9-30.2-9-30.3l-29.9 29.9 30.9 8.4c3.7 1.1 10.8 1.8 8-8z"/><path class="k" d="m101.8 93.5l9.8-9.9c0.1 0.1 8.9 30.2 9 30.3 2.8 9.8-4.3 9.1-8 8l-2.7-0.7z"/><path class="l" d="m112.6 121.9l-8.4-2.2 13.9-14c0.1 0.1 2.4 8.1 2.5 8.2 2.8 9.8-4.3 9.1-8 8z"/><path class="m" d="m108.3 115.6l9.8-9.9c0.1 0.1 2.4 8.1 2.5 8.2 2.8 9.8-4.3 9.1-8 8l-2.7-0.7z"/><path fill-rule="evenodd" d="m2.4 22.6c0.1-0.5 0.4-0.9 0.8-1.1 0.4-0.3 0.8-0.4 1.3-0.3 0.5 0.1 0.9 0.4 1.1 0.8 0.3 0.3 0.4 0.8 0.3 1.3-1.2 6.3 0.8 12.9 5.3 17.5l5.9 5.9 27.6-27.6-5.9-5.9c-9.3-9.2-24.9-6.8-31 4.8-0.3 0.4-0.6 0.7-1.1 0.8-0.4 0.1-0.9 0.1-1.3-0.1-0.4-0.2-0.7-0.6-0.9-1.1-0.1-0.4-0.1-0.9 0.1-1.3 7.3-13.8 25.8-16.4 36.7-5.6l71.6 71.7q0.2 0.1 0.3 0.3 0.1 0.2 0.1 0.4 0.1 0.2 0.1 0.4 0 0.3 0 0.5c0 0.1 8.9 29.5 8.9 29.6 2.1 7.3-1 10.7-6 10.7-2.3 0-2.4-0.1-19.5-4.8q-0.3-0.1-0.6-0.3-0.3-0.2-0.5-0.6-0.2-0.3-0.2-0.6 0-0.4 0-0.7c0.3-0.9 1.3-1.5 2.2-1.2l6 1.6 12.4-12.4-5.5-18.2-25.4 25.5 6.6 1.8q0.3 0.1 0.6 0.3 0.3 0.2 0.4 0.6 0.2 0.3 0.2 0.6 0.1 0.4 0 0.7c-0.3 0.9-1.2 1.5-2.2 1.2l-8.9-2.4q-0.2 0-0.4 0-0.2 0-0.4-0.1-0.2 0-0.4-0.1-0.2-0.2-0.3-0.3l-71.7-71.6c-5.4-5.4-7.7-13.2-6.3-20.7zm51 25.2l-7.5 7.5 45.8 45.8 7.5-7.5zm-10 10l-7.5 7.4 45.8 45.8 7.5-7.5zm19.9-19.9l-7.4 7.5 45.7 45.7 7.5-7.4zm-43.7 11.3l5.6 5.6 16.2-16.2c0.3-0.3 0.7-0.5 1.2-0.5 0.5 0 0.9 0.2 1.3 0.5 0.3 0.4 0.5 0.8 0.5 1.3 0 0.5-0.2 0.9-0.5 1.2l-16.2 16.2 5.6 5.6 27.5-27.5-5.6-5.6-7 7c-0.3 0.3-0.8 0.5-1.3 0.5-0.4 0-0.9-0.2-1.2-0.5-0.3-0.3-0.5-0.8-0.5-1.2 0-0.5 0.2-1 0.5-1.3l7-7-5.6-5.6zm97.6 60l-9.6 9.6c7.9 2.2 13.8 4.5 11.2-4.3-0.1-0.6 0.5 1.6-1.6-5.3z"/><text style="transform:matrix(.5,0,0,.5,84.5,51)" ><tspan x="0" y="0" class="n">W</tspan><tspan  y="0" class="n">e</tspan><tspan  y="0" class="n">a</tspan><tspan  y="0" class="n">p</tspan><tspan  y="0" class="n">i
</tspan></text></svg>